<svg width="52" height="56" viewBox="0 0 52 56" fill="none" xmlns="http://www.w3.org/2000/svg">
<path d="M49.9728 9.82709C49.3282 8.03425 48.4687 6.5156 47.0622 4.99695C45.6558 3.47831 44.2493 2.55024 42.5889 1.8542C40.9871 1.17924 39.1314 0.715212 36.4552 0.588658C33.7595 0.462104 32.9 0.419922 26.024 0.419922C19.148 0.419922 18.2885 0.441012 15.5928 0.588658C12.8971 0.715212 11.0608 1.17924 9.45905 1.8542C7.79865 2.55024 6.39219 3.47831 4.98573 4.99695C3.57927 6.5156 2.71977 8.03425 2.07515 9.82709C1.45006 11.5567 1.0203 13.5604 0.9031 16.4501C0.785895 19.3608 0.746826 20.2889 0.746826 27.7134C0.746826 35.1379 0.766361 36.0659 0.9031 38.9767C1.0203 41.8874 1.45006 43.8701 2.07515 45.5997C2.71977 47.3925 3.57927 48.9112 4.98573 50.4298C6.39219 51.9485 7.79865 52.8765 9.45905 53.5726C11.0608 54.2475 12.9166 54.7115 15.5928 54.8381C18.2885 54.9647 19.148 55.0068 26.024 55.0068C32.9 55.0068 33.7595 54.9857 36.4552 54.8381C39.1509 54.7115 40.9871 54.2475 42.5889 53.5726C44.2493 52.8765 45.6558 51.9485 47.0622 50.4298C48.4687 48.9112 49.3282 47.3925 49.9728 45.5997C50.5979 43.8701 51.0277 41.8663 51.1449 38.9767C51.2621 36.0659 51.3011 35.1379 51.3011 27.7134C51.3011 20.2889 51.2816 19.3608 51.1449 16.4501C51.0277 13.5393 50.5979 11.5567 49.9728 9.82709ZM46.5934 38.7447C46.4762 41.4023 46.066 42.8577 45.7144 43.8068C45.2651 45.0724 44.6986 46.0004 43.8196 46.9496C42.9405 47.8987 42.1006 48.4893 40.909 48.9955C40.0104 49.3752 38.6821 49.8181 36.2208 49.9447C33.5446 50.0712 32.7633 50.1134 26.0045 50.1134C19.2456 50.1134 18.4447 50.0923 15.7881 49.9447C13.3268 49.8181 11.9789 49.3752 11.0999 48.9955C9.92787 48.5104 9.06837 47.8987 8.18933 46.9496C7.31029 46.0004 6.76334 45.0934 6.29452 43.8068C5.94291 42.8366 5.53269 41.4023 5.41548 38.7447C5.29828 35.855 5.25921 34.9902 5.25921 27.7134C5.25921 20.4365 5.27875 19.5507 5.41548 16.6821C5.53269 14.0245 5.94291 12.5691 6.29452 11.6199C6.7438 10.3544 7.31029 9.42634 8.18933 8.47719C9.06837 7.52803 9.90833 6.93745 11.0999 6.43123C11.9985 6.05157 13.3268 5.60863 15.7881 5.48208C18.4643 5.35552 19.2652 5.31334 26.0045 5.31334C32.7437 5.31334 33.5642 5.33443 36.2208 5.48208C38.6821 5.60863 40.03 6.05157 40.909 6.43123C42.081 6.91636 42.9405 7.52803 43.8196 8.47719C44.6986 9.42634 45.2456 10.3333 45.7144 11.6199C46.066 12.5902 46.4762 14.0245 46.5934 16.6821C46.7106 19.5717 46.7497 20.4365 46.7497 27.7134C46.7497 34.9902 46.7106 35.8761 46.5934 38.7447Z" fill="white"/>
<path d="M26.0065 13.6871C18.8375 13.6871 13.0163 19.9726 13.0163 27.7135C13.0163 35.4544 18.8375 41.7399 26.0065 41.7399C33.1755 41.7399 38.9966 35.4544 38.9966 27.7135C38.9966 19.9726 33.1755 13.6871 26.0065 13.6871ZM26.0065 36.8254C21.3574 36.8254 17.5677 32.7545 17.5677 27.7135C17.5677 22.6935 21.3378 18.6016 26.0065 18.6016C30.6751 18.6016 34.4452 22.6724 34.4452 27.7135C34.4452 32.7334 30.6556 36.8254 26.0065 36.8254Z" fill="white"/>
<path d="M39.5036 16.4087C41.1758 16.4087 42.5313 14.945 42.5313 13.1394C42.5313 11.3338 41.1758 9.87012 39.5036 9.87012C37.8314 9.87012 36.4758 11.3338 36.4758 13.1394C36.4758 14.945 37.8314 16.4087 39.5036 16.4087Z" fill="white"/>
</svg>
