<svg width="67" height="57" viewBox="0 0 67 57" fill="none" xmlns="http://www.w3.org/2000/svg">
<path d="M66.4371 24.8904C66.4371 18.5141 62.9759 12.399 56.8149 7.89031C50.6539 3.3816 42.2979 0.848633 33.5849 0.848633C24.872 0.848633 16.5159 3.3816 10.355 7.89031C4.19399 12.399 0.732788 18.5141 0.732788 24.8904C0.732788 31.2667 4.19399 37.3818 10.355 41.8905C16.5159 46.3992 24.872 48.9322 33.5849 48.9322H37.6914C41.798 52.9392 50.011 56.9461 58.224 56.9461C56.1708 54.9427 54.1175 48.9322 54.1175 43.6731C57.9645 41.419 61.0693 38.5604 63.2019 35.3091C65.3345 32.0577 66.4401 28.4969 66.4371 24.8904Z" fill="white"/>
</svg>
