<svg width="53" height="48" viewBox="0 0 53 48" fill="none" xmlns="http://www.w3.org/2000/svg">
<path d="M28.4963 37.7C26.4826 39.8021 24.5016 41.8866 22.5207 43.9711C21.8331 44.6954 21.0636 45.1017 20.065 45.0487C19.3938 45.0134 19.0172 44.6954 18.8044 44.0065C17.2982 38.9542 15.7593 33.9019 14.2531 28.832C14.1058 28.3373 13.893 28.1077 13.4346 27.9487C9.88195 26.7828 6.31298 25.5815 2.77676 24.3626C2.2365 24.1683 1.67987 23.9387 1.2051 23.5854C0.468385 23.0554 0.370156 22.1898 1.02501 21.5539C1.63076 20.9709 2.3511 20.4763 3.10419 20.1583C7.45898 18.3034 11.8302 16.5016 16.2013 14.682C27.2848 10.0714 38.3682 5.44308 49.4517 0.832429C51.5636 -0.0508367 53.1844 1.18573 52.9552 3.65888C52.8078 5.23109 52.4313 6.78564 52.1366 8.34019C49.73 20.5999 47.3234 32.8773 44.9004 45.1371C44.3274 48.0518 42.4283 48.8114 40.2182 47.0449C36.5019 44.0948 32.7856 41.127 29.0693 38.1593C28.8892 38.0003 28.7091 37.8589 28.4963 37.7ZM20.1468 41.4273C20.196 41.4097 20.2287 41.4097 20.2778 41.392C20.2942 41.2684 20.3269 41.1624 20.3433 41.0564C20.5889 38.2829 20.8344 35.4918 21.0473 32.7183C21.0964 32.1 21.2928 31.6584 21.7185 31.2344C25.1401 27.931 28.5618 24.5923 31.967 21.2712C35.7488 17.5968 39.5306 13.9224 43.296 10.2304C43.5252 10.0007 43.6235 9.61209 43.7872 9.29412C43.427 9.25879 43.0505 9.0998 42.723 9.18813C42.281 9.31178 41.8717 9.59443 41.4788 9.85941C33.1458 15.53 24.7963 21.2005 16.4633 26.8711C15.9885 27.1891 15.9066 27.4541 16.0867 28.0194C16.7088 29.9272 17.2655 31.8527 17.8385 33.7783C18.6079 36.3221 19.3774 38.8835 20.1468 41.4273Z" fill="white"/>
</svg>
