<svg width="60" height="65" viewBox="0 0 60 65" fill="none" xmlns="http://www.w3.org/2000/svg">
<path fill-rule="evenodd" clip-rule="evenodd" d="M33.3836 22.9953C34.5409 23.2608 35.4279 23.7343 36.1858 24.4983C37.1611 25.4898 37.6956 26.6898 37.9306 28.4138C38.0895 29.5378 38.0244 29.9798 37.6543 30.3463C37.3079 30.6873 36.6674 30.6998 36.2797 30.3778C35.9978 30.1503 35.9095 29.9103 35.845 29.2598C35.7688 28.3943 35.6276 27.7883 35.3866 27.2263C34.8697 26.0328 33.959 25.4138 32.4199 25.2118C31.6973 25.1168 31.48 25.0288 31.245 24.7318C30.8159 24.1823 30.9807 23.2918 31.5738 22.9633C31.7972 22.8433 31.891 22.8308 32.3846 22.8623C32.6907 22.8813 33.143 22.9383 33.3836 22.9953ZM32.1325 18.2268C35.6987 18.7888 38.4596 20.5698 40.2694 23.4623C41.286 25.0918 41.9204 27.0053 42.1377 29.0578C42.2139 29.8093 42.2139 31.1798 42.1317 31.4073C42.0551 31.6218 41.8085 31.9123 41.5971 32.0323C41.3682 32.1588 40.8806 32.1458 40.6103 31.9943C40.1579 31.7478 40.0228 31.3563 40.0228 30.2953C40.0228 28.6598 39.629 26.9353 38.9477 25.5963C38.1721 24.0678 37.0441 22.8048 35.6694 21.9268C34.4884 21.1688 32.7436 20.6068 31.1516 20.4678C30.5758 20.4173 30.2586 20.2908 30.0412 20.0193C29.7064 19.6088 29.6711 19.0528 29.953 18.5918C30.2581 18.0818 30.7281 17.9993 32.1325 18.2268ZM18.2968 14.3303C18.5025 14.4063 18.8197 14.5828 19.0017 14.7093C20.1177 15.5053 23.2256 19.7808 24.2421 21.9153C24.8236 23.1343 25.0177 24.0373 24.8357 24.7068C24.6476 25.4268 24.3364 25.8058 22.9437 27.0118C22.3854 27.4978 21.8625 27.9968 21.7803 28.1298C21.569 28.4583 21.3986 29.1023 21.3986 29.5573C21.4046 30.6118 22.039 32.5258 22.8731 33.9973C23.5191 35.1403 24.6764 36.6053 25.8221 37.7298C27.1675 39.0563 28.354 39.9593 29.6939 40.6728C31.4154 41.5948 32.4668 41.8283 33.2364 41.4433C33.43 41.3483 33.6358 41.2223 33.7003 41.1653C33.7588 41.1083 34.2116 40.5148 34.7048 39.8578C35.6564 38.5693 35.8738 38.3608 36.5263 38.1208C37.3548 37.8178 38.2005 37.8998 39.0526 38.3673C39.6991 38.7273 41.1091 39.6683 42.0193 40.3503C43.2179 41.2533 45.7792 43.5018 46.1261 43.9503C46.7368 44.7588 46.8427 45.7943 46.4317 46.9378C45.997 48.1438 44.3051 50.4048 43.1241 51.3713C42.0551 52.2428 41.2971 52.5773 40.2982 52.6278C39.4757 52.6718 39.1348 52.5963 38.0834 52.1288C29.8355 48.4723 23.2497 43.0158 18.0209 35.5188C15.2893 31.6033 13.2092 27.5423 11.7876 23.3298C10.9591 20.8733 10.9182 19.8058 11.5995 18.5488C11.8935 18.0183 13.1446 16.7048 14.0553 15.9723C15.5712 14.7598 16.2701 14.3113 16.8283 14.1848C17.2101 14.0963 17.8742 14.1658 18.2968 14.3303ZM31.727 13.6483C33.7482 13.9198 35.381 14.4438 37.1732 15.3853C38.9356 16.3138 40.0637 17.1918 41.5558 18.7893C42.9542 20.2988 43.7297 21.4418 44.5522 23.2163C45.6979 25.6918 46.3499 28.6353 46.4614 31.8748C46.5027 32.9798 46.473 33.2263 46.238 33.5423C45.7917 34.1548 44.8104 34.0538 44.4756 33.3653C44.3697 33.1378 44.3404 32.9423 44.3051 32.0578C44.2461 30.6998 44.1584 29.8223 43.9819 28.7738C43.2885 24.6623 41.4555 21.3783 38.5297 19.0223C36.0916 17.0518 33.5712 16.0918 30.2697 15.8833C29.1533 15.8138 28.9596 15.7698 28.707 15.5613C28.237 15.1633 28.2133 14.2288 28.6657 13.7928C28.942 13.5213 29.1356 13.4833 30.0933 13.5148C30.5934 13.5343 31.3277 13.5978 31.727 13.6483ZM29.947 0.613281C46.362 0.613281 59.6692 14.9403 59.6692 32.6133C59.6692 50.2863 46.362 64.6133 29.947 64.6133C13.5319 64.6133 0.224731 50.2863 0.224731 32.6133C0.224731 14.9403 13.5319 0.613281 29.947 0.613281Z" fill="white"/>
</svg>
