<svg width="56" height="34" viewBox="0 0 56 34" fill="none" xmlns="http://www.w3.org/2000/svg">
<path d="M52.9821 1.78709H44.1953C43.8366 1.78709 43.4847 1.89194 43.1769 2.0905C42.8691 2.28905 42.617 2.57388 42.4474 2.91466C42.4474 2.91466 38.9429 9.87463 37.8172 12.2189C34.7888 18.5252 32.8278 16.5454 32.8278 13.6186V3.52691C32.8278 2.68361 32.5171 1.87485 31.9642 1.27855C31.4112 0.682252 30.6612 0.347254 29.8792 0.347254H23.2727C22.373 0.275117 21.4711 0.45221 20.6528 0.861714C19.8344 1.27122 19.1267 1.89954 18.5969 2.68699C18.5969 2.68699 21.9516 2.10207 21.9516 6.9765C21.9516 8.18521 22.0093 11.6624 22.0619 14.5788C22.0718 15.0086 21.9592 15.4313 21.7393 15.7899C21.5194 16.1485 21.2027 16.4256 20.8321 16.584C20.4614 16.7423 20.0547 16.7742 19.6667 16.6753C19.2787 16.5765 18.9282 16.3516 18.6625 16.0311C15.9583 11.9753 13.7184 7.58214 11.9914 2.94703C11.843 2.60029 11.6056 2.30671 11.3072 2.10112C11.0088 1.89552 10.662 1.78654 10.3079 1.78709C8.40234 1.78709 4.58909 1.78709 2.32452 1.78709C2.10493 1.78548 1.88825 1.84138 1.69311 1.95C1.49797 2.05861 1.3302 2.21669 1.20421 2.41065C1.07822 2.60461 0.997778 2.82866 0.969797 3.06354C0.941817 3.29842 0.967132 3.53712 1.04357 3.75912C3.46771 10.9297 13.9102 33.4635 25.8292 33.4635H30.8459C31.3715 33.4635 31.8756 33.2383 32.2473 32.8375C32.619 32.4367 32.8278 31.8931 32.8278 31.3263V28.0596C32.8278 27.6498 32.939 27.2489 33.1476 26.9065C33.3563 26.564 33.6533 26.2948 34.0021 26.1321C34.3509 25.9694 34.7362 25.9203 35.1105 25.9908C35.4848 26.0613 35.8319 26.2484 36.1088 26.529L42.1135 32.6129C42.6527 33.1593 43.3648 33.4635 44.1048 33.4635H51.9899C55.7929 33.4635 55.7929 30.6177 53.7195 28.4156C52.2602 26.8659 46.9946 20.8806 46.9946 20.8806C46.5437 20.3768 46.2747 19.7157 46.2363 19.0168C46.198 18.3179 46.3927 17.6272 46.7853 17.0695C48.4873 14.6542 51.2712 10.7004 52.4519 9.00664C54.0657 6.69155 56.9864 1.78709 52.9821 1.78709Z" fill="white"/>
</svg>
