<svg width="59" height="64" viewBox="0 0 59 64" fill="none" xmlns="http://www.w3.org/2000/svg">
<path d="M58.5858 31.0862C58.5858 48.0353 45.7295 61.7749 29.8676 61.7749C24.832 61.7749 20.1013 60.3889 15.9855 57.9564L0.0858765 63.3975L5.26962 46.9321C2.65468 42.3079 1.14863 36.8843 1.14863 31.0862C1.14863 14.1371 14.0063 0.397461 29.8682 0.397461C45.7308 0.397461 58.5858 14.1371 58.5858 31.0862ZM29.8676 5.28486C16.553 5.28486 5.72267 16.8594 5.72267 31.0862C5.72267 36.7324 7.43152 41.9607 10.3221 46.2139L7.30542 55.7955L16.5842 52.6196C20.3964 55.3153 24.9633 56.8875 29.8682 56.8875C43.1809 56.8875 54.0131 45.3144 54.0131 31.0869C54.0124 16.8601 43.1815 5.28486 29.8676 5.28486ZM44.3697 38.1541C44.1923 37.8412 43.7236 37.6522 43.0203 37.2763C42.3157 36.9004 38.8538 35.0797 38.2103 34.8305C37.5649 34.5792 37.0943 34.4532 36.6256 35.2057C36.157 35.9589 34.8076 37.6522 34.3961 38.1541C33.9853 38.6574 33.5752 38.7204 32.8706 38.3438C32.1673 37.9679 29.8994 37.1727 27.2104 34.61C25.118 32.6171 23.7049 30.1552 23.2941 29.402C22.884 28.6495 23.2512 28.2428 23.6029 27.8683C23.9201 27.5309 24.3075 26.9898 24.6591 26.5509C25.0121 26.1113 25.1291 25.7984 25.3624 25.2958C25.5984 24.7939 25.4807 24.355 25.3039 23.9777C25.1284 23.6018 23.7192 19.9002 23.1329 18.3945C22.5466 16.8888 21.961 17.1394 21.5495 17.1394C21.1394 17.1394 20.6694 17.0764 20.2001 17.0764C19.7308 17.0764 18.9677 17.2647 18.3223 18.0172C17.6775 18.7704 15.8594 20.5904 15.8594 24.2913C15.8594 27.9929 18.3808 31.5692 18.7337 32.0711C19.0854 32.5723 23.6022 40.4151 30.7587 43.4272C37.9159 46.4372 37.9159 45.4327 39.2068 45.3067C40.4964 45.1814 43.3707 43.4874 43.9596 41.7318C44.5446 39.9734 44.5446 38.4677 44.3697 38.1541Z" fill="white"/>
</svg>
